<svg width="16" height="16" viewBox="0 0 16 16" fill="none" xmlns="http://www.w3.org/2000/svg">
<path d="M7.99999 1.33337C4.31666 1.33337 1.33333 4.31671 1.33333 8.00004C1.33333 11.6834 4.31666 14.6667 7.99999 14.6667C11.6833 14.6667 14.6667 11.6834 14.6667 8.00004C14.6667 4.31671 11.6833 1.33337 7.99999 1.33337ZM7.99999 13.3334C5.05999 13.3334 2.66666 10.94 2.66666 8.00004C2.66666 5.06004 5.05999 2.66671 7.99999 2.66671C10.94 2.66671 13.3333 5.06004 13.3333 8.00004C13.3333 10.94 10.94 13.3334 7.99999 13.3334ZM6.71999 7.24337C6.75666 7.02671 6.82333 6.83337 6.91999 6.66337C7.01666 6.49337 7.14999 6.35671 7.31333 6.25337C7.46999 6.15671 7.66666 6.10337 7.90999 6.10004C8.06999 6.10337 8.21666 6.13004 8.34333 6.18671C8.47999 6.24671 8.59333 6.32671 8.68999 6.42671C8.78666 6.52671 8.85999 6.64671 8.91333 6.78004C8.96666 6.91337 8.99666 7.05671 9.00333 7.20671H10.1967C10.1867 6.89337 10.1233 6.60671 10.0133 6.34671C9.90333 6.08671 9.74333 5.86337 9.54333 5.67337C9.34333 5.48337 9.10333 5.34004 8.82333 5.23671C8.54333 5.13337 8.23333 5.08004 7.89333 5.08004C7.45999 5.08004 7.08333 5.15337 6.76333 5.30337C6.44333 5.45337 6.17666 5.65671 5.96333 5.91671C5.74999 6.17671 5.58999 6.47671 5.48666 6.82004C5.38333 7.16337 5.33333 7.52671 5.33333 7.91004V8.09337C5.33333 8.48004 5.38666 8.84337 5.48999 9.18671C5.59333 9.53004 5.75333 9.83004 5.96666 10.0867C6.17999 10.3434 6.44666 10.5467 6.76999 10.6967C7.09333 10.8467 7.46999 10.92 7.90333 10.92C8.21666 10.92 8.50999 10.87 8.78333 10.7667C9.05666 10.6634 9.29666 10.5234 9.50333 10.3434C9.70999 10.1634 9.87666 9.95671 9.99666 9.71671C10.1167 9.47671 10.1867 9.22337 10.1967 8.95004H9.00333C8.99666 9.09004 8.96333 9.21671 8.90333 9.33671C8.84333 9.45671 8.76333 9.55671 8.66333 9.64004C8.56333 9.72337 8.44666 9.79004 8.31333 9.83671C8.18666 9.88004 8.05333 9.90337 7.90999 9.90337C7.66999 9.89671 7.47333 9.84671 7.31333 9.74671C7.14666 9.64004 7.01333 9.50337 6.91666 9.33337C6.81999 9.16337 6.75333 8.97004 6.71666 8.75004C6.67999 8.53004 6.66666 8.31671 6.66666 8.09337V7.91004C6.66666 7.68337 6.68333 7.46004 6.71999 7.24337Z" fill="white"/>
</svg>
