<svg width="17" height="17" viewBox="0 0 17 17" fill="none" xmlns="http://www.w3.org/2000/svg">
<path fill-rule="evenodd" clip-rule="evenodd" d="M7.09554 14.1692C7.09922 14.2562 7.08983 14.3411 7.07151 14.4271C7.03931 14.5781 6.97713 14.7379 6.88912 14.8856C6.63892 15.3053 6.21389 15.5854 5.66667 15.5854C4.37757 15.5854 3.87163 14.9529 3.23816 13.3693C2.80913 12.2967 2.60674 12.0437 2.125 12.0437V10.627C3.4141 10.627 3.92003 11.2595 4.5535 12.8431C4.98253 13.9157 5.18493 14.1687 5.66667 14.1687C5.66667 13.9632 5.66385 13.7811 5.65793 13.5346C5.64404 12.9567 5.64245 12.8387 5.66766 12.6842C5.67773 12.347 5.7648 12.1077 5.93937 11.8702C4.35851 11.5261 3.29228 10.8154 2.68031 9.66263L2.45107 9.12351C2.22774 8.48169 2.125 7.75446 2.125 6.91459C2.125 5.94732 2.41991 5.08246 2.97076 4.35952C2.79893 3.67233 2.82246 2.83274 3.20189 1.88455L3.32587 1.57472L3.64371 1.47305C3.68627 1.45944 3.73801 1.44714 3.79878 1.43761C4.41771 1.34046 5.29841 1.57223 6.44976 2.30972C7.1285 2.15239 7.84327 2.07295 8.56288 2.07295C9.20595 2.07295 9.84545 2.13778 10.4562 2.26559C11.5763 1.56411 12.4328 1.34409 13.0351 1.43773C13.0952 1.44707 13.1464 1.45913 13.1886 1.47251L13.5084 1.57394L13.6326 1.88565C13.9645 2.71918 14.0214 3.48734 13.9007 4.1595C14.5339 4.91934 14.875 5.85347 14.875 6.91459C14.875 7.80917 14.8109 8.48184 14.6267 9.13625L14.4322 9.66989C13.9232 10.8214 12.8006 11.5401 11.0695 11.8824C11.2494 12.1316 11.3333 12.3845 11.3333 12.752V13.4604C11.3333 13.8036 11.3333 13.8142 11.3326 14.1687C11.3342 14.1942 11.3363 14.2066 11.3386 14.2144C11.3382 14.2145 11.3365 14.6715 11.3333 15.5854C10.73 15.5854 10.2814 15.2911 10.0607 14.827C9.94633 14.5863 9.91215 14.3565 9.91667 14.1586V12.752C9.91667 12.6926 9.91461 12.6892 9.76997 12.5446C9.38336 12.158 9.20833 11.8663 9.20833 11.3354V10.6946L9.84589 10.6306C11.7437 10.44 12.7759 9.91295 13.1181 9.14301L13.278 8.7058C13.4053 8.24866 13.4583 7.69193 13.4583 6.91459C13.4583 6.08861 13.17 5.40629 12.6246 4.86115L12.3249 4.56151L12.4472 4.15572C12.5559 3.79522 12.5817 3.36864 12.4667 2.88209C12.4476 2.88694 12.4278 2.89221 12.4072 2.89795C12.0279 3.00354 11.5544 3.23011 10.9837 3.61153L10.7235 3.7855L10.4196 3.71016C9.83194 3.56443 9.20044 3.48962 8.56288 3.48962C7.8539 3.48962 7.15308 3.57982 6.50566 3.75632L6.1897 3.84246L5.91941 3.65755C5.32923 3.25381 4.83894 3.01371 4.4458 2.90155C4.41772 2.89354 4.39099 2.88638 4.36557 2.87999C4.22841 3.4431 4.28266 3.90575 4.42158 4.25291L4.58815 4.66916L4.28321 4.99783C3.7973 5.52156 3.54167 6.15889 3.54167 6.91459C3.54167 7.60646 3.62266 8.17976 3.77108 8.61161L3.95644 9.05038C4.41981 9.91987 5.40402 10.443 7.15883 10.6311L7.79167 10.6989V11.3354C7.79167 11.8663 7.61664 12.158 7.23003 12.5446C7.08539 12.6892 7.08333 12.6926 7.08333 12.752L7.07112 12.883C7.06305 12.9259 7.06305 13.0368 7.07419 13.5005C7.07931 13.7138 7.08223 13.8826 7.08307 14.059C7.09154 14.0955 7.09282 14.1191 7.09554 14.1692Z" fill="white"/>
</svg>
