<svg width="19" height="19" viewBox="0 0 19 19" fill="none" xmlns="http://www.w3.org/2000/svg">
<path d="M18.4062 4.06348C17.7381 4.35381 17.0311 4.54508 16.3077 4.63126C17.068 4.18608 17.6397 3.47885 17.9157 2.64219C17.1969 3.06249 16.4118 3.35739 15.5941 3.51426C15.2498 3.15339 14.8356 2.8663 14.3769 2.67045C13.9181 2.4746 13.4244 2.37408 12.9256 2.37501C10.9061 2.37501 9.27178 3.98555 9.27178 5.9709C9.27035 6.24706 9.30199 6.52239 9.36604 6.79102C7.91791 6.72313 6.4999 6.35372 5.20273 5.70641C3.90555 5.0591 2.75778 4.14815 1.83283 3.03184C1.50834 3.57888 1.33673 4.20303 1.33594 4.83907C1.33594 6.08594 1.98646 7.18809 2.96875 7.8338C2.38677 7.81998 1.81672 7.66595 1.30699 7.38477V7.4293C1.30699 9.17344 2.56871 10.6244 4.23863 10.9547C3.92461 11.0384 3.60101 11.0808 3.27602 11.0809C3.04541 11.0813 2.81533 11.0589 2.58912 11.0141C3.05336 12.4428 4.40451 13.4818 6.00504 13.5115C4.7045 14.5138 3.10777 15.0556 1.46582 15.0516C1.17437 15.0511 0.88319 15.0338 0.59375 14.9996C2.26411 16.0662 4.20577 16.6304 6.18762 16.625C12.9178 16.625 16.5946 11.144 16.5946 6.39024C16.5946 6.23438 16.5905 6.07852 16.5831 5.92637C17.2967 5.41874 17.9141 4.7879 18.4062 4.06348Z" fill="white"/>
</svg>
