<svg width="16" height="16" viewBox="0 0 16 16" fill="none" xmlns="http://www.w3.org/2000/svg">
<path d="M15.2 6.79999H10.4C9.73727 6.79999 9.20001 6.26273 9.20001 5.59999V1.99999C9.20001 1.33725 9.73727 0.799988 10.4 0.799988H14C14.6628 0.799988 15.2 1.33725 15.2 1.99999V6.79999ZM15.2 6.79999V11C15.2 13.3196 13.3196 15.2 11 15.2M6.80001 6.79999H2.00001C1.33727 6.79999 0.800013 6.26273 0.800013 5.59999V1.99999C0.800013 1.33725 1.33727 0.799988 2.00001 0.799988H5.60001C6.26275 0.799988 6.80001 1.33725 6.80001 1.99999V6.79999ZM6.80001 6.79999V11C6.80001 13.3196 4.91961 15.2 2.60001 15.2" stroke="#C5C5C5"/>
</svg>
